<?xml version="1.0" encoding="UTF-8" standalone="no"?>
<svg
   xmlns:dc="http://purl.org/dc/elements/1.1/"
   xmlns:cc="http://creativecommons.org/ns#"
   xmlns:rdf="http://www.w3.org/1999/02/22-rdf-syntax-ns#"
   xmlns:svg="http://www.w3.org/2000/svg"
   xmlns="http://www.w3.org/2000/svg"
   xmlns:sodipodi="http://sodipodi.sourceforge.net/DTD/sodipodi-0.dtd"
   xmlns:inkscape="http://www.inkscape.org/namespaces/inkscape"
   inkscape:export-ydpi="576"
   inkscape:export-xdpi="576"
   inkscape:export-filename="E:\Filedline\6 - Sauce.png"
   width="64pt"
   height="64pt"
   viewBox="0 0 22.577778 22.577778"
   version="1.1"
   id="svg831"
   inkscape:version="1.0 (4035a4fb49, 2020-05-01)"
   sodipodi:docname="EXPORT 64px.svg">
  <defs
     id="defs825">
    <pattern
       id="EMFhbasepattern"
       patternUnits="userSpaceOnUse"
       width="6"
       height="6"
       x="0"
       y="0" />
    <pattern
       id="EMFhbasepattern-9"
       patternUnits="userSpaceOnUse"
       width="6"
       height="6"
       x="0"
       y="0" />
    <pattern
       id="EMFhbasepattern-0"
       patternUnits="userSpaceOnUse"
       width="6"
       height="6"
       x="0"
       y="0" />
    <pattern
       id="EMFhbasepattern-7"
       patternUnits="userSpaceOnUse"
       width="6"
       height="6"
       x="0"
       y="0" />
    <pattern
       id="EMFhbasepattern-2"
       patternUnits="userSpaceOnUse"
       width="6"
       height="6"
       x="0"
       y="0" />
    <pattern
       id="EMFhbasepattern-98"
       patternUnits="userSpaceOnUse"
       width="6"
       height="6"
       x="0"
       y="0" />
    <pattern
       id="EMFhbasepattern-6"
       patternUnits="userSpaceOnUse"
       width="6"
       height="6"
       x="0"
       y="0" />
    <pattern
       id="EMFhbasepattern-01"
       patternUnits="userSpaceOnUse"
       width="6"
       height="6"
       x="0"
       y="0" />
    <pattern
       id="EMFhbasepattern-07"
       patternUnits="userSpaceOnUse"
       width="6"
       height="6"
       x="0"
       y="0" />
    <pattern
       id="EMFhbasepattern-8"
       patternUnits="userSpaceOnUse"
       width="6"
       height="6"
       x="0"
       y="0" />
    <pattern
       id="EMFhbasepattern-4"
       patternUnits="userSpaceOnUse"
       width="6"
       height="6"
       x="0"
       y="0" />
    <pattern
       id="EMFhbasepattern-40"
       patternUnits="userSpaceOnUse"
       width="6"
       height="6"
       x="0"
       y="0" />
    <pattern
       id="EMFhbasepattern-08"
       patternUnits="userSpaceOnUse"
       width="6"
       height="6"
       x="0"
       y="0" />
    <pattern
       id="EMFhbasepattern-04"
       patternUnits="userSpaceOnUse"
       width="6"
       height="6"
       x="0"
       y="0" />
    <pattern
       id="EMFhbasepattern-014"
       patternUnits="userSpaceOnUse"
       width="6"
       height="6"
       x="0"
       y="0" />
    <pattern
       id="EMFhbasepattern-27"
       patternUnits="userSpaceOnUse"
       width="6"
       height="6"
       x="0"
       y="0" />
    <pattern
       id="EMFhbasepattern-09"
       patternUnits="userSpaceOnUse"
       width="6"
       height="6"
       x="0"
       y="0" />
    <pattern
       id="EMFhbasepattern-5"
       patternUnits="userSpaceOnUse"
       width="6"
       height="6"
       x="0"
       y="0" />
    <pattern
       id="EMFhbasepattern-018"
       patternUnits="userSpaceOnUse"
       width="6"
       height="6"
       x="0"
       y="0" />
  </defs>
  <sodipodi:namedview
     id="base"
     pagecolor="#ffffff"
     bordercolor="#666666"
     borderopacity="1.0"
     inkscape:pageopacity="0.0"
     inkscape:pageshadow="2"
     inkscape:zoom="4.350364"
     inkscape:cx="-2.1482077"
     inkscape:cy="47.948221"
     inkscape:document-units="pt"
     inkscape:current-layer="layer1"
     showgrid="false"
     units="pt"
     inkscape:window-width="1366"
     inkscape:window-height="715"
     inkscape:window-x="-8"
     inkscape:window-y="-8"
     inkscape:window-maximized="1"
     inkscape:pagecheckerboard="true"
     inkscape:showpageshadow="false"
     inkscape:object-paths="true"
     inkscape:snap-intersection-paths="true"
     inkscape:snap-smooth-nodes="true"
     inkscape:snap-midpoints="true"
     showguides="true"
     inkscape:snap-bbox="true"
     inkscape:bbox-nodes="true"
     inkscape:snap-nodes="false"
     inkscape:snap-global="true"
     inkscape:document-rotation="0">
    <inkscape:grid
       type="xygrid"
       id="grid1378" />
    <sodipodi:guide
       position="0.97013831,21.607643"
       orientation="78.000048,0"
       id="guide1380"
       inkscape:locked="false" />
    <sodipodi:guide
       position="0.97013831,0.97013129"
       orientation="0,78.000005"
       id="guide1382"
       inkscape:locked="false" />
    <sodipodi:guide
       position="21.607639,0.97013129"
       orientation="-78.000048,0"
       id="guide1384"
       inkscape:locked="false" />
    <sodipodi:guide
       position="21.607639,21.607643"
       orientation="0,-78.000005"
       id="guide1386"
       inkscape:locked="false" />
  </sodipodi:namedview>
  <metadata
     id="metadata828">
    <rdf:RDF>
      <cc:Work
         rdf:about="">
        <dc:format>image/svg+xml</dc:format>
        <dc:type
           rdf:resource="http://purl.org/dc/dcmitype/StillImage" />
        <dc:title></dc:title>
      </cc:Work>
    </rdf:RDF>
  </metadata>
  <g
     inkscape:label="Icon"
     inkscape:groupmode="layer"
     id="layer1"
     transform="translate(0,-274.42223)">
    <path
       id="path1719"
       style="color:#000000;font-style:normal;font-variant:normal;font-weight:normal;font-stretch:normal;font-size:medium;line-height:normal;font-family:sans-serif;font-variant-ligatures:normal;font-variant-position:normal;font-variant-caps:normal;font-variant-numeric:normal;font-variant-alternates:normal;font-variant-east-asian:normal;font-feature-settings:normal;font-variation-settings:normal;text-indent:0;text-align:start;text-decoration:none;text-decoration-line:none;text-decoration-style:solid;text-decoration-color:#000000;letter-spacing:normal;word-spacing:normal;text-transform:none;writing-mode:lr-tb;direction:ltr;text-orientation:mixed;dominant-baseline:auto;baseline-shift:baseline;text-anchor:start;white-space:normal;shape-padding:0;shape-margin:0;inline-size:0;clip-rule:nonzero;display:inline;overflow:visible;visibility:visible;opacity:1;isolation:auto;mix-blend-mode:normal;color-interpolation:sRGB;color-interpolation-filters:linearRGB;solid-color:#000000;solid-opacity:1;vector-effect:none;fill:#000000;fill-opacity:1;fill-rule:nonzero;stroke:none;stroke-width:0.667407;stroke-linecap:round;stroke-linejoin:round;stroke-miterlimit:4;stroke-dasharray:none;stroke-dashoffset:0;stroke-opacity:1;color-rendering:auto;image-rendering:auto;shape-rendering:auto;text-rendering:auto;enable-background:accumulate;stop-color:#000000;stop-opacity:1"
       d="m 3.5426328,277.33831 c -0.076279,0.12019 -0.1257899,0.25537 -0.1257899,0.41126 0,0.92616 0,1.85231 0,2.77846 -0.2182787,1.85624 -0.7440351,2.49943 -1.5590254,4.48351 -1.08912431,3.07806 -1.04340357,5.30215 -0.5689942,8.14901 0.1407327,0.78358 0.8567666,1.36414 1.6404923,1.36414 h 3.286197 c 0.7836858,0 1.4997697,-0.58065 1.6404891,-1.36414 0.4402414,-2.65751 0.3471349,-5.77782 -0.5689943,-8.14901 -0.711302,-1.88295 -1.5356794,-3.12959 -1.5596793,-4.48349 1.99e-5,-0.92659 0,-1.85205 0,-2.77848 0,-0.1559 -0.048848,-0.29109 -0.1251391,-0.41126 -0.4821679,-0.56847 -1.5651554,-0.6066 -2.0595562,0 z m 1.517309,0.41126 v 1.09105 c -0.3263051,-0.0801 -0.6493901,-0.0801 -0.9756919,0 v -1.09105 c 0.1408896,-0.32252 0.8621827,-0.28659 0.9756919,0 z m 0,1.60594 v 0.84012 H 4.0842499 v -0.84012 c 0.3424865,-0.14271 0.6639996,-0.0807 0.9756919,0 z m 11.9422762,1.07672 c -0.07628,0.1202 -0.12514,0.25538 -0.12514,0.41127 v 2.78107 c 0,0.73725 -0.18561,1.1573 -0.46601,1.55707 -0.280404,0.39976 -0.679881,0.7705 -1.056511,1.31005 -0.187118,0.27424 -0.317383,0.52158 -0.437987,0.78342 -0.71901,2.02897 -0.517647,3.81002 -0.16556,5.88543 0.140733,0.78358 0.85416,1.36414 1.637883,1.36414 h 3.286197 c 0.783683,0 1.49977,-0.58065 1.640493,-1.36414 0.278091,-1.87869 0.552962,-4.18271 -0.165547,-5.88543 -0.109539,-0.27961 -0.292762,-0.55743 -0.437986,-0.78342 -0.376631,-0.53956 -0.776104,-0.91029 -1.056509,-1.31005 -0.280407,-0.39977 -0.467968,-0.81982 -0.467968,-1.55707 2e-5,-0.92745 0,-1.85377 0,-2.78107 0,-0.15591 -0.04689,-0.29109 -0.123186,-0.41127 -0.537196,-0.57654 -1.535989,-0.53141 -2.062183,0 z m 1.517959,0.41127 v 1.09105 c -0.326298,-0.0801 -0.64939,-0.0801 -0.975691,0 v -1.09105 c 0.280905,-0.25735 0.811062,-0.13575 0.975691,0 z M 4.0718661,280.863 h 1.000456 c 0.079732,1.14229 0.5557462,2.09991 1.058467,3.17474 -0.9834571,0.0593 -2.1332454,0.0593 -3.1167358,0 0.5027207,-1.07483 0.9780811,-2.03246 1.0578128,-3.17474 z m 7.0625179,0.98024 c -0.455368,2e-5 -0.827084,0.38153 -0.82709,0.83556 v 0.83231 h -0.241802 c -0.3646277,0 -0.6628417,0.30551 -0.662845,0.66741 v 1.00307 c 0,0.16751 0.066007,0.32125 0.1707627,0.43993 -0.453276,0.36821 -0.7443153,0.93255 -0.7443153,1.56229 v 7.00581 c -6.675e-4,0.18429 0.1481075,0.33427 0.3323985,0.335 h 4.2716641 c 0.185311,7.1e-4 0.335716,-0.14968 0.335008,-0.335 v -7.00581 c -4e-6,-0.62974 -0.292305,-1.19408 -0.746271,-1.56228 0.104304,-0.11868 0.169458,-0.27233 0.169458,-0.43994 v -1.00307 c -4e-6,-0.3619 -0.295611,-0.66741 -0.660236,-0.66741 h -0.241154 v -0.83231 c -7e-6,-0.45403 -0.37237,-0.83554 -0.827741,-0.83556 z m 7.385793,0.60614 v 0.84013 h -0.975691 v -0.84013 c 0.253801,-0.13234 0.742273,-0.11704 0.975691,0 z m -7.385793,0.0619 h 0.327837 c 0.0891,0 0.160334,0.0686 0.160334,0.16751 v 0.8323 H 10.9747 v -0.8323 c 4e-6,-0.0989 0.07059,-0.16751 0.159684,-0.16751 z m 6.395765,1.44562 h 1.003716 c 0.05643,0.68585 0.285037,1.19341 0.574855,1.6066 0.415728,0.57844 0.855802,0.98992 1.186866,1.51796 -1.283797,0.13015 -3.23998,0.1301 -4.52455,0 0.33073,-0.57054 0.862459,-1.06226 1.186862,-1.51796 0.289815,-0.41319 0.516313,-0.92076 0.572251,-1.6066 z m -7.459444,0.2216 h 2.453239 v 1.00307 h -2.453239 z m -7.3525532,0.51033 c 1.147449,0.0841 2.560696,0.0842 3.7078881,0 0.081567,0.18518 0.16237,0.37305 0.2398492,0.56899 0.638825,1.61563 1.1319451,3.67122 0.662191,6.97062 -1.3548256,0.20969 -4.1560383,0.20963 -5.5113177,0 -0.4697176,-3.29931 0.022725,-5.35501 0.6615402,-6.97062 0.077449,-0.19588 0.1583121,-0.38387 0.2398492,-0.56899 z m 9.0719062,1.16014 c 0.724316,0 1.310696,0.59093 1.3107,1.33482 v 6.67341 H 9.4965011 v -6.67341 c 3.3e-6,-0.74389 0.5837779,-1.33481 1.3080909,-1.33481 z m -7.3532038,1.51274 c -0.375473,0.14455 -0.7545599,0.36442 -0.9678699,0.73389 -0.1723176,0.29846 -0.2637458,0.61233 -0.2587501,0.90922 0.00501,0.29687 0.1203728,0.61068 0.401485,0.77299 0.3817501,0.17148 0.7485701,0.0498 1.096269,-0.0587 0.375473,-0.14455 0.7545633,-0.36507 0.9678698,-0.73453 0.1723111,-0.29846 0.2637458,-0.61169 0.2587503,-0.90856 -0.00501,-0.29688 -0.1203703,-0.61134 -0.4014885,-0.77365 -0.3776355,-0.16796 -0.701935,-0.0613 -1.0962656,0.0593 z m 16.1826568,0.35196 c 0.348423,0.88024 0.511181,2.19876 0.170764,4.51477 -1.355561,0.21025 -4.162866,0.20985 -5.516534,-6.7e-4 -0.339793,-2.3139 -0.176436,-3.632 0.172064,-4.51215 1.441769,0.1823 3.732105,0.18078 5.173706,-0.003 z m -15.5198119,0.93854 c -0.077218,0.13375 -0.3518634,0.33479 -0.6335157,0.4432 -0.7143487,0.32426 -0.7294388,-0.20166 -0.4210402,-0.66741 0.077216,-0.13374 0.3512095,-0.33478 0.6328618,-0.4432 0.7074911,-0.28404 0.7459037,0.2299 0.4216941,0.66741 z m 5.1971699,-0.46797 c -0.184301,-7.3e-4 -0.3342911,0.1481 -0.3350086,0.3324 -6.674e-4,0.18533 0.1496896,0.33573 0.3350086,0.33501 h 2.00287 c 0.184299,-7.3e-4 0.33312,-0.1507 0.332399,-0.33501 -6.68e-4,-0.18328 -0.149116,-0.33168 -0.332399,-0.3324 z m 7.042963,0.22682 c -0.166488,0.0812 -0.23495,0.28252 -0.152513,0.44841 l 0.264617,0.53445 c -0.555342,0.0856 -0.984164,0.5734 -0.984164,1.15297 0,0.63835 0.518714,1.16731 1.155578,1.16731 h 0.819919 c 0.636862,0 1.155578,-0.52896 1.155581,-1.16731 0,-0.57822 -0.426799,-1.06499 -0.980253,-1.15232 l 0.263311,-0.5351 c 0.08244,-0.16589 0.01399,-0.36718 -0.152513,-0.44841 -0.207679,-0.0834 -0.366119,0.0212 -0.445807,0.15251 l -0.248322,0.50446 -0.249627,-0.50446 c -0.116892,-0.18576 -0.288322,-0.22224 -0.445807,-0.15251 z m -7.042963,1.10799 c -0.184555,-7.3e-4 -0.3346482,0.1485 -0.3350086,0.33306 -6.674e-4,0.18532 0.1496896,0.33573 0.3350086,0.33501 h 2.00287 c 0.184299,-7.3e-4 0.33312,-0.15071 0.332399,-0.33501 -3.33e-4,-0.18354 -0.148862,-0.33234 -0.332399,-0.33306 z m 7.326481,0.52468 c 0.08693,0 0.166431,0.0242 0.249596,0.0687 0.08317,0.0445 0.162438,0.0537 0.28309,0.005 0.120651,-0.0484 0.198355,-0.0742 0.287253,-0.0742 0.270593,0 0.488171,0.22 0.488175,0.50316 0,0.28316 -0.217582,0.4999 -0.488175,0.4999 h -0.81992 c -0.270593,0 -0.488171,-0.21674 -0.488171,-0.4999 0,-0.28316 0.217578,-0.50316 0.488171,-0.50316 l -9e-6,1e-5 z m -7.326481,0.81079 c -0.184301,-7.3e-4 -0.3342911,0.1481 -0.3350086,0.3324 -6.674e-4,0.18532 0.1496896,0.33574 0.3350086,0.33501 h 2.00287 c 0.184299,-7.3e-4 0.33312,-0.15071 0.332399,-0.33501 -6.68e-4,-0.18327 -0.149116,-0.33168 -0.332399,-0.3324 z m -8.3699612,2.0674 c 1.4620378,0.1977 3.8289856,0.1977 5.2910234,0 -0.00708,0.0406 -0.012183,0.079 -0.019556,0.11994 -0.076314,0.4249 -0.5566071,0.81536 -0.9828598,0.81536 h -3.286196 c -0.426216,0 -0.9065219,-0.39029 -0.9828599,-0.81536 z m 13.4589372,0 c 1.462199,0.19782 3.830123,0.19782 5.292325,0 -0.0072,0.041 -0.01275,0.0783 -0.02022,0.11994 -0.07632,0.4249 -0.556601,0.81536 -0.98286,0.81536 h -3.286198 c -0.426215,0 -0.906518,-0.39029 -0.98286,-0.81536 -0.0074,-0.0416 -0.01302,-0.079 -0.02019,-0.11994 z"
       sodipodi:nodetypes="cccccsscccccccccccccscccssccccscccccccccccccccccssccsscsccccccssscssscccscssssccsccscccccccscccsccscsscccssscccssccccccsscssscccccsccccsscccccccccccccccscccccccccsccscccccsssscccsssccsccsssss" />
  </g>
</svg>
